<mxfile host="app.diagrams.net" modified="2023-04-04T15:37:53.910Z" agent="Mozilla/5.0 (Windows NT 10.0; Win64; x64) AppleWebKit/537.36 (KHTML, like Gecko) Chrome/111.0.0.0 Safari/537.36 Edg/111.0.1661.62" version="21.1.1" etag="NmqOT2XUyfhf44kV_Jfn" type="github">
  <diagram name="Страница 1" id="AMioQ5z1uBzVPYg-4qCF">
    <mxGraphModel>
      <root>
        <mxCell id="0" />
        <mxCell id="1" parent="0" />
      </root>
    </mxGraphModel>
  </diagram>
</mxfile>
